<svg width="150" height="151" viewBox="0 0 150 151" fill="none" xmlns="http://www.w3.org/2000/svg">
<path d="M81.1172 81.1306H115.558C134.58 81.1306 150 96.5512 150 115.573V115.573C150 134.594 134.58 150.015 115.559 150.015V150.015C96.5371 150.015 81.1172 134.595 81.1172 115.573V81.1306Z" fill="#FEB840"/>
<path d="M81.1172 34.4415C81.1172 15.42 96.5371 0 115.559 0V0C134.58 0 150 15.4203 150 34.4418V34.4418C150 53.4636 134.58 68.8841 115.558 68.8841H81.1172V34.4415Z" fill="#00E16C"/>
<path d="M0 34.4506C0 15.4291 15.42 0.00878906 34.4414 0.00878906V0.00878906C53.4629 0.00878906 68.8829 15.4287 68.8829 34.4502V68.8929H34.4421C15.4202 68.8929 0 53.4724 0 34.4506V34.4506Z" fill="#00B8F3"/>
<path d="M0 115.573C0 96.5512 15.4202 81.1306 34.4421 81.1306H68.8829V115.573C68.8829 134.595 53.4629 150.015 34.4414 150.015V150.015C15.42 150.015 0 134.594 0 115.573V115.573Z" fill="#FB3E7A"/>
</svg>
